# xmcd CD database file
#
# Track frame offsets:
#	150
#	24355
#	55454
#	88140
#	114845
#	152992
#	163935
#	177572
#	188160
#	211386
#	239919
#	275388
#
# Disc length: 4083 seconds
#
# Revision: 0
# Processed by: cddbd v1.5.2PL0 Copyright (c) Steve Scherf et al.
# Submitted via: CDex 1.51
#
DISCID=ae0ff10c
DTITLE=Sampler - Jazz Tales [CD 1)
DYEAR=2007
DGENRE=Jazz
TTITLE0=Miles Davis - Walkin'
TTITLE1=Miles Davis - Bye Bye Blackbird
TTITLE2=Miles Davis - Four
TTITLE3=Miles Davis - Oleo
TTITLE4=Ella Fitzgerald - Perdido
TTITLE5=Ella Fitzgerald - Lullaby of Birdland
TTITLE6=Ella Fitzgerald - Miss Otis Regrets
TTITLE7=Ella Fitzgerald - A tisket a-tasket
TTITLE8=Sarah Vaughan - I'm Glad there Is You
TTITLE9=Sarah Vaughan - April in Paris
TTITLE10=Max Roach - Garvey's Ghost
TTITLE11=Max Roach - Tender Warriors
EXTD=YEAR: 2007
EXTT0=
EXTT1=
EXTT2=
EXTT3=
EXTT4=
EXTT5=
EXTT6=
EXTT7=
EXTT8=
EXTT9=
EXTT10=
EXTT11=
PLAYORDER=
